HIERARCHY
ROOT Hips
{
	OFFSET 0.000000 0.000000 0.000000 
	CHANNELS 6 Xposition Yposition Zposition Yrotation Zrotation Xrotation 
	JOINT Lumbar
	{
		OFFSET 0.000000 0.000000 0.000000 
		CHANNELS 3 Zrotation Xrotation Yrotation
		JOINT Neck
		{
			OFFSET 0.000000 0.445665 0.000000 
			CHANNELS 3 Zrotation Xrotation Yrotation
			End Site
			{
				OFFSET 0.000000 0.227535 0.000000 
			}
		}
		JOINT RightShoulder
		{
			OFFSET 0.019635 0.377685 0.194865 
			CHANNELS 3 Zrotation Xrotation Yrotation
			JOINT RightElbow
			{
				OFFSET 0.000000 -0.243375 0.000000 
				CHANNELS 2 Zrotation Yrotation
				JOINT RightWrist
				{
					OFFSET 0.000000 -0.264825 0.000000 
					CHANNELS 2 Zrotation Xrotation
					End Site
					{
						OFFSET 0.006600 -0.176220 0.000990 
					}
				}
			}
		}
		JOINT LeftShoulder
		{
			OFFSET 0.019635 0.377685 -0.194865 
			CHANNELS 3 Zrotation Xrotation Yrotation
			JOINT LeftElbow
			{
				OFFSET 0.000000 -0.243375 0.000000 
				CHANNELS 2 Zrotation Yrotation
				JOINT LeftWrist
				{
					OFFSET 0.000000 -0.264825 0.000000 
					CHANNELS 2 Zrotation Xrotation
					End Site
					{
						OFFSET 0.006600 -0.176220 -0.000990 
					}
				}
			}
		}
	}
	JOINT RightHip
	{
		OFFSET 0.052140 -0.069960 0.075570 
		CHANNELS 3 Zrotation Xrotation Yrotation
		JOINT RightKnee
		{
			OFFSET 0.000000 -0.402270 0.000000 
			CHANNELS 1 Zrotation
			JOINT RightAnkle
			{
				OFFSET 0.000000 -0.404085 0.000000 
				CHANNELS 3 Zrotation Xrotation Yrotation
				End Site
				{
					OFFSET 0.204105 -0.089430 0.008415 
				}
			}
		}
	}
	JOINT LeftHip
	{
		OFFSET 0.052140 -0.069960 -0.075570 
		CHANNELS 3 Zrotation Xrotation Yrotation
		JOINT LeftKnee
		{
			OFFSET 0.000000 -0.402270 0.000000 
			CHANNELS 1 Zrotation
			JOINT LeftAnkle
			{
				OFFSET 0.000000 -0.404085 0.000000 
				CHANNELS 3 Zrotation Xrotation Yrotation
				End Site
				{
					OFFSET 0.204105 -0.089430 -0.008415 
				}
			}
		}
	}
}
MOTION
Frames: 26
Frame Time: 0.02
-0 0.95578 -0 186.16498 0 -3.15789 4.3115 4.02507 -5.03241 -4.48947 9.21802 -2.78842 -0.99207 -18.99443 14.3415 9.8239 86.24253 -0.69011 2.23169 -1.18133 -2.25399 28.70261 5.78679 -70.11909 -5.2282 -4.72038 -4.20594 7.25434 2.09417 -3.73487 1.98361 -2.96547 -4.84081 -2.42203 0.44325 -3.82946 -5.96175 6.55374 4.73174 7.28505
0.00039 0.95579 -6e-05 186.25084 0 -3.15002 4.17495 4.06364 -5.05751 -3.96316 9.18577 -2.75025 -1.39656 -19.02537 13.90864 9.67083 86.04195 -0.8575 2.06574 -1.62064 -1.8452 23.40085 5.78662 -71.11044 -4.97172 -3.98878 -4.18557 7.25479 2.04626 -3.74209 1.97669 -2.97955 -4.87644 -2.37228 0.43796 -3.91838 -5.99717 6.53936 4.72636 7.28379
0.00078 0.95579 -0.00011 186.33611 0 -3.14234 4.03889 4.10216 -5.08138 -3.43941 9.15398 -2.71204 -1.79807 -19.05664 13.48027 9.51907 85.84233 -1.02379 1.90057 -2.05424 -1.43887 18.12993 5.78696 -72.09595 -4.71721 -3.26121 -4.16498 7.2554 1.9988 -3.74969 1.96975 -2.9936 -4.91185 -2.32303 0.43297 -4.00677 -6.03175 6.5248 4.72089 7.28227
0.00117 0.95579 -0.00017 186.42056 0 -3.13496 3.90378 4.14073 -5.10063 -2.92121 9.12271 -2.6732 -2.19314 -19.0889 13.06595 9.37088 85.64406 -1.18669 1.73768 -2.47146 -1.03676 12.92548 5.78909 -73.06872 -4.46836 -2.54211 -4.14393 7.25608 1.95125 -3.75793 1.96292 -3.0074 -4.94596 -2.27455 0.42833 -4.09436 -6.06487 6.50978 4.71543 7.28041
0.00155 0.95579 -0.00023 186.51022 0 -3.12553 3.76401 4.17888 -5.1444 -2.37412 9.08745 -2.63757 -2.62417 -19.11517 12.57762 9.20361 85.43797 -1.3668 1.56363 -2.97805 -0.61034 7.36268 5.78147 -74.1101 -4.18987 -1.77751 -4.12606 7.25571 1.90244 -3.76163 1.95579 -3.02221 -4.986 -2.22111 0.42088 -4.18674 -6.10758 6.49767 4.71041 7.28121
0.00195 0.9558 -0.00028 186.58821 0 -3.12074 3.634 4.218 -5.13625 -1.88832 9.0615 -2.5953 -2.97748 -19.15459 12.24602 9.07698 85.2491 -1.51081 1.41273 -3.29332 -0.23711 2.5676 5.79465 -75.00458 -3.9741 -1.11035 -4.10097 7.25802 1.85749 -3.7757 1.94913 -3.03504 -5.01412 -2.17883 0.42001 -4.26852 -6.12872 6.4791 4.70415 7.27579
0.0024 0.95583 -0.00032 186.63945 0 -3.12647 3.5303 4.25972 -4.97922 -1.56764 9.05454 -2.53197 -3.12838 -19.22838 12.35608 9.06199 85.10016 -1.55129 1.32944 -3.08453 0.00545 -0.19825 5.86631 -75.5097 -3.93426 -0.69991 -4.05868 7.26423 1.81305 -3.81356 1.94498 -3.04097 -5.00348 -2.16179 0.4325 -4.32535 -6.09968 6.44452 4.69683 7.25767
0.00285 0.95586 -0.00035 186.67782 0 -3.13727 3.43644 4.30241 -4.77063 -1.30933 9.05815 -2.46245 -3.19867 -19.31574 12.62256 9.08795 84.96981 -1.556 1.26889 -2.68148 0.19157 -2.17504 5.95883 -75.86418 -3.95727 -0.38961 -4.00851 7.27379 1.7745 -3.86291 1.94113 -3.04506 -4.98193 -2.15686 0.45247 -4.37068 -6.04748 6.40316 4.68788 7.2326
0.0033 0.95589 -0.0004 186.71874 0 -3.14731 3.33838 4.34487 -4.58896 -1.02465 9.0614 -2.39738 -3.29812 -19.39842 12.81225 9.09577 84.83574 -1.57974 1.19531 -2.3643 0.39325 -4.45764 6.04125 -76.27744 -3.94963 -0.04108 -3.96014 7.28413 1.73957 -3.91009 1.93628 -3.05108 -4.96911 -2.1502 0.47219 -4.41859 -5.99924 6.36353 4.67802 7.20758
0.00376 0.95591 -0.00039 186.77414 0 -3.15102 3.23924 4.38673 -4.39244 -0.73127 9.04615 -2.32511 -3.42932 -19.47539 13.02725 9.10235 84.68179 -1.59212 1.13259 -2.05763 0.63752 -6.96413 6.12638 -76.73098 -3.95054 0.33792 -3.9194 7.28478 1.67732 -3.94402 1.93485 -3.05293 -4.94018 -2.12825 0.47881 -4.47793 -5.97718 6.32918 4.67484 7.19503
0.0042 0.95595 -0.00051 186.79565 0 -3.16887 3.14463 4.42968 -4.21479 -0.47135 9.07163 -2.26675 -3.47495 -19.56677 13.22514 9.12033 84.5736 -1.6192 1.05329 -1.68252 0.7796 -8.81486 6.21068 -77.06541 -3.94891 0.62991 -3.86073 7.30637 1.67429 -4.00871 1.92664 -3.06246 -4.94245 -2.14021 0.51424 -4.51039 -5.89702 6.28274 4.65773 7.15568
0.00457 0.95604 -0.00093 186.7323 0 -3.2268 3.06058 4.47871 -4.10015 -0.28444 9.20908 -2.24494 -3.3065 -19.7005 13.3521 9.16779 84.58761 -1.69958 0.91715 -1.16902 0.65488 -9.06821 6.28909 -77.1034 -3.92182 0.7042 -3.75591 7.38539 1.82951 -4.15211 1.89749 -3.09806 -5.03517 -2.24961 0.62959 -4.47423 -5.646 6.20022 4.59941 7.03708
0.0049 0.95615 -0.00148 186.63408 0 -3.29835 2.98069 4.5282 -4.00657 -0.13023 9.38634 -2.23791 -3.05425 -19.84691 13.45467 9.22403 84.64692 -1.79529 0.76454 -0.59251 0.42947 -8.68605 6.36581 -77.02751 -3.89057 0.69468 -3.63304 7.48546 2.0475 -4.32686 1.862 -3.14029 -5.16182 -2.39135 0.77324 -4.41083 -5.34058 6.1067 4.52784 6.89326
0.00524 0.95625 -0.002 186.54842 0 -3.36224 2.89851 4.57531 -3.90447 0.0368 9.5445 -2.22638 -2.83872 -19.98404 13.55764 9.27074 84.68528 -1.88139 0.62311 -0.04316 0.24852 -8.58043 6.44213 -77.00671 -3.86325 0.72495 -3.51753 7.57535 2.23588 -4.48928 1.83067 -3.17705 -5.2688 -2.51394 0.9025 -4.35815 -5.07025 6.02094 4.46425 6.76526
0.00562 0.95634 -0.00243 186.47692 0 -3.43261 2.81819 4.63158 -3.7962 0.21201 9.70894 -2.2055 -2.62609 -20.13767 13.70729 9.3414 84.72596 -1.97733 0.46697 0.5057 0.06907 -8.49534 6.52352 -76.96671 -3.82955 0.74492 -3.40538 7.66717 2.41808 -4.64332 1.7935 -3.22557 -5.38331 -2.65609 1.03853 -4.31232 -4.75419 5.92279 4.39182 6.61771
0.00591 0.95646 -0.00307 186.36689 0 -3.49251 2.73507 4.66888 -3.7064 0.36105 9.86754 -2.20742 -2.38861 -20.25831 13.75677 9.3648 84.77213 -2.05696 0.33716 1.06932 -0.13418 -8.23154 6.59443 -76.94141 -3.80727 0.76724 -3.28198 7.76092 2.6417 -4.82295 1.76753 -3.24939 -5.50293 -2.76459 1.16698 -4.24559 -4.52221 5.84855 4.33531 6.5061
0.00598 0.95668 -0.00424 186.16701 0 -3.52135 2.64158 4.65361 -3.66304 0.46409 10.0172 -2.27119 -2.1029 -20.29597 13.49186 9.24604 84.82335 -2.08705 0.28483 1.64631 -0.39855 -7.59376 6.6307 -76.98714 -3.81808 0.82165 -3.13258 7.84591 2.84205 -5.05865 1.76954 -3.22042 -5.51554 -2.77561 1.26825 -4.13057 -4.52441 5.8381 4.32096 6.49099
0.00595 0.95693 -0.00562 185.92812 0 -3.53886 2.54554 4.6193 -3.63769 0.53839 10.15572 -2.35707 -1.79538 -20.29715 13.13363 9.08082 84.87784 -2.10043 0.25929 2.2373 -0.67855 -6.80936 6.65776 -77.05193 -3.84019 0.88105 -2.97239 7.93352 3.10115 -5.32042 1.78395 -3.16438 -5.54961 -2.75079 1.36064 -3.99508 -4.61581 5.85322 4.3242 6.51489
0.00595 0.95717 -0.00693 185.70196 0 -3.56086 2.45151 4.59366 -3.60396 0.61475 10.28909 -2.43109 -1.49846 -20.30845 12.84693 8.94308 84.93061 -2.12225 0.22093 2.82865 -0.93904 -6.11889 6.69264 -77.10696 -3.85638 0.93514 -2.81679 8.02606 3.41805 -5.57456 1.79551 -3.10808 -5.65252 -2.74028 1.45673 -3.8671 -4.67329 5.85968 4.32252 6.52648
0.00601 0.95742 -0.00815 185.49579 0 -3.58642 2.35345 4.56771 -3.57173 0.73819 10.4698 -2.51285 -1.1961 -20.35023 12.43953 8.77941 84.98764 -2.1414 0.18485 3.39364 -1.25887 -5.288 6.71115 -77.16226 -3.87549 0.99839 -2.66196 8.09449 3.39506 -5.81135 1.79473 -3.10019 -5.43975 -2.73987 1.55561 -3.74537 -4.69897 5.85258 4.30677 6.51321
0.00592 0.95764 -0.0096 185.23903 0 -3.60133 2.26387 4.53818 -3.5404 0.7549 10.5452 -2.58406 -0.90045 -20.31626 12.25791 8.65785 85.03384 -2.16148 0.15043 4.01643 -1.45322 -4.72626 6.76281 -77.2234 -3.89162 1.04572 -2.5031 8.21225 4.07478 -6.09088 1.82312 -2.99106 -5.8704 -2.70874 1.6457 -3.60659 -4.81523 5.88081 4.32544 6.56268
0.00548 0.95777 -0.01159 184.85418 0 -3.59301 2.19179 4.50162 -3.50746 0.50405 10.3617 -2.61653 -0.63454 -20.11061 12.75334 8.67012 85.06775 -2.19225 0.11573 4.79062 -1.33253 -4.91908 6.89799 -77.29326 -3.89367 1.04081 -2.33694 8.47619 6.83684 -6.4746 1.92577 -2.55535 -8.2328 -2.6056 1.71797 -3.42319 -5.1433 5.99353 4.42879 6.76497
0.00488 0.95786 -0.0138 184.42008 0 -3.57395 2.12939 4.4629 -3.47485 0.14356 10.06647 -2.63847 -0.37594 -19.82419 13.47256 8.72509 85.08728 -2.22376 0.08161 5.62249 -1.07749 -5.39409 7.06878 -77.36927 -3.89303 1.02133 -2.16705 8.78773 10.27371 -6.90145 2.0583 -2.02787 -11.21149 -2.47037 1.78079 -3.22493 -5.56558 6.14265 4.56761 7.03155
0.00431 0.95796 -0.01592 184.00668 0 -3.55717 2.067 4.42583 -3.4415 -0.18022 9.80364 -2.66775 -0.10994 -19.55645 14.07056 8.75648 85.10068 -2.25216 0.04612 6.43147 -0.86087 -5.76133 7.22999 -77.44508 -3.89552 1.01372 -1.99806 9.07025 13.29995 -7.31353 2.17893 -1.57854 -13.80319 -2.34891 1.84497 -3.03403 -5.95227 6.27916 4.69388 7.27552
0.00391 0.95811 -0.01801 183.59684 0 -3.54982 1.98649 4.38351 -3.4104 -0.45115 9.61993 -2.68647 0.14162 -19.36517 14.75188 8.80419 85.16644 -2.29147 0.016 7.22928 -0.7422 -6.0432 7.36296 -77.51125 -3.88993 0.98458 -1.83169 9.38355 16.77074 -7.70698 2.29163 -0.97762 -16.84857 -2.23578 1.92116 -2.83581 -6.30008 6.39837 4.80465 7.49153
0.00312 0.95815 -0.02021 183.1711 0 -3.52188 1.94531 4.35406 -3.37556 -0.85591 9.24266 -2.7251 0.41879 -18.99388 15.30875 8.82829 85.12127 -2.30875 -0.02524 8.06098 -0.38517 -6.56364 7.56339 -77.59782 -3.90092 0.99612 -1.65958 9.64468 19.47061 -8.14809 2.42938 -0.66695 -19.09315 -2.09045 1.97031 -2.65466 -6.76443 6.56391 4.9572 7.78228
